<?xml version="1.0" encoding="utf-8"?>
<!-- Generator: Adobe Illustrator 27.0.0, SVG Export Plug-In . SVG Version: 6.00 Build 0)  -->
<svg version="1.1" id="Layer_1" xmlns="http://www.w3.org/2000/svg" xmlns:xlink="http://www.w3.org/1999/xlink" x="0px" y="0px"
	 viewBox="0 0 400 400" style="enable-background:new 0 0 400 400;" xml:space="preserve">
<style type="text/css">
	.st0{fill:#F7BA00;}
	.st1{fill:none;}
	.st2{font-family:'Fashion-Fetish-Bold';}
	.st3{font-size:37.7512px;}
	.st4{font-family:'Poppins-Regular';}
	.st5{font-size:19.7px;}
</style>
<g>
	<path class="st0" d="M155.6,109.5l2.3,3.9c21.3-13.8,28.3-42.3,15.5-64.5l-2.3-3.9C149.8,58.8,142.7,87.3,155.6,109.5z"/>
	<path class="st0" d="M200.5,171.7l-21.8-21.8l-15.4-15.4l-5.9-5.9l-10.6,10.6c-9.7,9.7-16.1,20.8-19.3,33.4
		c-3.2,12.6-3.2,25.2,0,37.8c3.2,12.6,9.6,23.8,19.3,33.4c9.6,9.6,20.7,16,33.3,19.2c12.6,3.2,25.2,3.2,37.8,0
		c12.6-3.2,23.7-9.6,33.3-19.2c9.6-9.6,16-20.7,19.3-33.4c3.2-12.7,3.2-25.3,0-38c-3.2-12.7-9.7-23.8-19.3-33.4l-30.9-30.9l-2.1-2.1
		L199,86.9l-31.6,31.6l21.3,21.3l10.2-10.2l30.9,30.9c1,1,1.8,1.9,2.7,3c0.3,0.4,0.6,0.7,0.9,1.1c0.5,0.6,1,1.3,1.5,1.9
		c0.3,0.5,0.7,1,1,1.5c0.3,0.5,0.7,1.1,1,1.6c0.3,0.6,0.7,1.2,1,1.8c0.1,0.2,0.2,0.4,0.2,0.5c0.8,1.6,1.5,3.3,2.1,5
		c0.1,0.3,0.2,0.6,0.3,0.8c0.3,0.8,0.5,1.6,0.7,2.5c0.1,0.4,0.2,0.7,0.3,1.1c0.2,0.8,0.4,1.6,0.5,2.4c0,0.1,0,0.2,0.1,0.3
		c0,0.1,0,0.3,0,0.4c0.3,1.7,0.4,3.4,0.5,5.2c0,0.5,0.1,1.1,0.1,1.6c0,0.1,0,0.2,0,0.3c0,1.8-0.1,3.5-0.3,5.1
		c-0.1,0.4-0.1,0.9-0.2,1.3c-0.6,4.1-1.6,7.9-3.3,11.5c0,0.1-0.1,0.2-0.1,0.3l0,0c-2.1,4.6-5,8.8-8.9,12.7
		c-8.5,8.5-18.8,12.8-30.9,12.8c-8.2,0-15.6-2-22.2-6c-0.4-0.2-0.8-0.5-1.2-0.7c-0.6-0.4-1.1-0.7-1.7-1.1c-0.6-0.4-1.2-0.9-1.8-1.3
		c-0.4-0.3-0.8-0.6-1.2-0.9c-1-0.8-2-1.7-2.9-2.7c-1-1-1.9-2-2.7-3c-0.3-0.4-0.6-0.8-0.9-1.1c-0.5-0.6-1-1.3-1.4-1.9
		c-0.4-0.5-0.7-1-1-1.5c-0.3-0.5-0.6-1-0.9-1.5c-3.9-6.6-5.9-13.9-5.9-22c0-6.7,1.4-12.8,4-18.5l41.3,41.3
		C212.3,202.5,212.3,183.4,200.5,171.7z"/>
	<path class="st0" d="M150.2,118.4l2.8-0.5c-3.6-15.7-19-26-35.1-23.2l-2.8,0.5C118.8,110.8,134.2,121.2,150.2,118.4z"/>
	<rect x="20.1" y="281.9" class="st1" width="356.9" height="72"/>
	<text transform="matrix(1.0002 0 0 1 89.0522 313.0781)" class="st0 st2 st3">ezenziala</text>
	<rect x="-33.5" y="324.9" class="st1" width="466.5" height="119.1"/>
	<text transform="matrix(1.0002 0 0 1 75.8174 339.4629)" class="st0 st4 st5">“Naturaleza en una gota”</text>
</g>
</svg>
